<svg width="94" height="75" viewBox="0 0 94 75" fill="none" xmlns="http://www.w3.org/2000/svg">
<path d="M70.9459 6.27315C73.0765 8.44516 74.6345 10.8405 76.1397 13.4771C77.9761 16.2376 79.9135 17.3171 83.0522 18.1097C84.771 18.3671 85.5796 18.0935 87.0262 17.135C87.9085 16.3969 88.758 15.6416 89.5882 14.8453C90.326 14.1758 90.326 14.1758 91.4894 13.5338C93.4733 14.3784 93.4733 14.3784 93.937 15.2187C93.0389 18.1062 91.4289 19.5908 88.822 21.0768C85.6055 22.3832 82.2916 22.9198 78.9222 21.8205C75.4243 20.1443 73.5267 16.9993 71.6246 13.7721C69.1563 9.90117 66.0992 6.9582 61.6411 5.76361C59.6944 5.42665 58.4008 5.99096 56.7235 6.91653C54.813 10.6946 55.2937 15.0039 56.5759 18.9104C57.3834 20.509 58.3245 21.5664 59.5822 22.8408C59.8109 23.0732 60.0395 23.3057 60.2751 23.5451C62.0295 25.2928 63.9003 26.8562 65.8304 28.4047C69.6044 31.4436 72.9688 35.106 73.5372 40.1359C72.9094 44.2037 71.5089 47.267 68.282 49.8658C65.5735 51.4055 63.1683 51.3682 60.2007 50.6495C53.1345 48.4215 47.767 42.6356 43.6062 36.739C40.4785 32.3255 37.0135 27.8491 31.5846 26.4287C30.1805 26.1995 29.2392 26.3892 27.9479 26.9697C26.3407 28.1817 25.9917 29.7493 25.6112 31.6741C25.6198 34.9179 27.6462 36.9992 29.7845 39.2367C31.0587 40.358 32.3971 41.3585 33.7768 42.3458C39.4387 46.4315 44.0869 51.495 45.456 58.5252C46.2204 63.319 46.0737 66.8159 43.3193 70.8978C41.7923 72.8814 40.594 73.7271 38.2028 74.4327C33.1554 74.6378 29.1034 71.869 25.2306 68.9747C20.2968 65.2381 20.2968 65.2381 14.3792 64.0376C10.7679 64.7315 8.42101 66.0954 5.959 68.819C5.11527 70.1077 4.29137 71.4064 3.48745 72.7204C2.33395 72.6929 2.33395 72.6929 1.10019 72.5199C0.45815 71.3565 0.45815 71.3565 0.700631 69.776C1.91044 66.0023 4.97157 62.7218 8.37504 60.7773C12.4025 59.0429 15.9029 59.322 20.0028 60.6912C22.6909 61.7844 24.826 63.3442 27.0921 65.1283C31.5529 68.6975 31.5529 68.6975 36.9888 70.1699C38.4348 69.6599 39.0113 69.2161 40.0279 68.1134C41.772 64.2047 41.5068 60.308 40.2476 56.2798C38.3056 51.6457 34.6846 48.8713 30.7899 45.915C26.0162 42.2819 21.5509 38.0119 20.6982 31.7529C20.6266 28.9123 21.6294 26.6807 23.55 24.6298C26.2895 22.802 29.1078 21.1865 32.4758 21.8149C39.3932 23.5272 43.9652 29.3157 47.7397 35.0142C51.7683 40.7622 56.3866 45.1208 63.3869 46.496C64.6507 46.6964 64.6507 46.6964 65.7742 46.6964C67.6676 45.0962 68.4342 43.1503 68.9533 40.7682C68.9869 37.9671 68.3081 36.7952 66.4972 34.8517C64.268 32.6478 61.8378 30.6491 59.4366 28.6365C55.4619 25.1912 52.3827 21.3992 51.6313 16.0822C51.5405 15.4887 51.4497 14.8951 51.3561 14.2835C51.2576 13.4721 51.2576 13.4721 51.1571 12.6443C51.0974 12.2028 51.0376 11.7614 50.9761 11.3065C50.7952 8.25797 51.9011 5.74574 53.8696 3.46379C59.2939 -1.95428 66.1144 1.9931 70.9459 6.27315Z" fill="#E0F8E6"/>
</svg>
