<svg width="1440" height="82" viewBox="0 0 1440 82" fill="none" xmlns="http://www.w3.org/2000/svg">
<g clip-path="url(#clip0_120_499)">
<rect width="1440" height="82" fill="#0A2914"/>
<path d="M373.88 45.9025C376.222 47.8934 376.222 47.8934 377.627 50.587C377.351 55.6781 375.792 59.4449 373.236 63.762C372.872 64.3922 372.509 65.0224 372.134 65.6717C365.992 76.1809 359.311 86.3959 352.635 96.5715C351.948 97.6387 351.261 98.7061 350.574 99.7737C349.997 100.653 349.42 101.532 348.825 102.438C347.401 105.444 347.143 107.26 347.647 110.548C350.38 113.853 353.354 115.458 357.202 117.267C358.347 117.818 359.492 118.37 360.637 118.921C362.419 119.769 364.202 120.612 365.989 121.448C384.124 129.976 384.124 129.976 386.842 136.902C387.296 139.64 387.122 141.968 386.352 144.627C384.835 146.505 383.611 147.124 381.375 148.024C374.813 148.279 368.532 146.279 362.403 144.159C361.547 143.867 360.692 143.574 359.81 143.273C346.556 138.623 331.632 132.51 324.224 119.917C322.366 114.34 322.454 108.799 325.048 103.481C325.863 102.018 326.703 100.568 327.562 99.1296C328.018 98.3358 328.474 97.5419 328.944 96.724C334.78 86.7164 341.166 77.0489 347.647 67.451C348.181 66.6554 348.715 65.8599 349.265 65.0402C350.742 62.8483 352.235 60.6678 353.736 58.492C354.163 57.8626 354.59 57.2331 355.03 56.5846C359.937 49.597 364.897 43.7343 373.88 45.9025Z" fill="#34A853"/>
<path d="M288.154 -8.55408C291.196 -5.96907 291.351 -5.28911 291.902 -1.29318C291.755 10.1499 283.118 22.3331 277.38 31.8493C276.721 32.9582 276.063 34.0671 275.404 35.176C266.384 50.2364 266.384 50.2364 259.579 52.4609C251.684 53.4045 245.843 48.6537 239.905 44.0289C234.747 39.6627 231.236 35.5623 229.95 28.7459C230.835 23.5228 233.573 20.7055 237.094 16.8591C237.516 16.3921 237.938 15.9252 238.374 15.4441C248.762 4.08654 271.433 -17.5119 288.154 -8.55408Z" fill="#8636C1"/>
<path d="M348.993 -11.248C352.331 -10.3112 352.331 -10.3112 354.615 -7.85182C356.597 -3.5704 356.977 -0.678605 355.383 3.84101C349.21 17.2918 338.942 29.3022 330.277 41.2064C329.045 42.9043 327.822 44.608 326.603 46.3158C325.629 47.6763 325.629 47.6763 324.634 49.0643C324.092 49.8251 323.55 50.586 322.991 51.3699C318.602 57.0112 318.602 57.0112 314.387 57.6134C311.108 57.1449 311.108 57.1449 308.824 55.7396C306.796 52.4946 306.893 49.5924 307.36 45.9022C308.256 43.0038 309.518 40.3553 310.874 37.6459C311.247 36.8813 311.62 36.1168 312.005 35.3291C335.331 -11.248 335.331 -11.248 348.993 -11.248Z" fill="#34A853"/>
<path d="M291.492 79.1146C294.944 80.0958 296.233 82.2845 297.992 85.2519C298.636 88.1212 298.636 88.1212 297.992 90.8733C295.221 93.8419 293.332 95.1973 289.56 96.6117C286.326 96.477 284.559 95.5996 282.2 93.3656C280.544 90.9637 280.404 88.9954 280.648 86.1303C282.105 80.6145 286.228 78.7656 291.492 79.1146Z" fill="#7E36BE"/>
<path d="M397.302 80.5676C400.054 82.4999 400.054 82.4999 401.986 85.2521C401.986 88.572 401.666 90.7478 399.995 93.6255C397.129 95.2498 394.896 95.0158 391.68 94.621C389.397 93.1571 389.397 93.1571 387.933 90.8734C387.401 87.1494 387.349 85.1913 389.455 82.0315C392.39 80.1011 393.85 79.9336 397.302 80.5676Z" fill="#E9703F"/>
<path d="M224.109 76.3696C240.786 78.6858 256.541 98.41 268.315 109.331C270.983 111.8 273.673 114.224 276.443 116.579C283.801 122.952 290.742 130.004 297.033 137.429C300.434 141.309 304.004 145.035 307.551 148.782C308.379 149.662 308.379 149.662 309.223 150.56C309.721 151.086 310.219 151.612 310.732 152.155C312.578 154.25 313.83 155.89 314.27 158.681C313.765 162.215 312.848 163.427 310.171 165.824C306.826 166.524 303.519 166.415 300.113 166.356C299.089 166.357 298.065 166.357 297.01 166.358C293.623 166.355 290.238 166.318 286.851 166.282C284.504 166.273 282.157 166.266 279.81 166.262C274.262 166.246 268.714 166.209 263.167 166.162C256.23 166.104 249.293 166.079 242.356 166.053C229.984 166.003 217.612 165.924 205.239 165.824C205.223 163.749 205.211 161.674 205.201 159.598C205.193 158.443 205.186 157.287 205.179 156.096C205.264 151.337 205.934 146.788 206.762 142.109C206.925 141.136 207.089 140.162 207.258 139.159C208.946 129.23 210.756 119.319 212.599 109.417C213.625 103.894 214.641 98.3793 215.428 92.8164C215.542 92.0332 215.655 91.2499 215.772 90.4429C215.963 89.0772 216.139 87.7092 216.294 86.339C216.971 81.542 219.074 77.4998 224.109 76.3696Z" fill="#34A853"/>
<path d="M1.30454 72.2701L37.8174 42.7824C38.1633 42.5031 38.606 42.3728 39.0483 42.42C39.4905 42.4673 39.896 42.6883 40.1755 43.0345L55.8547 62.4491C56.1343 62.7953 56.265 63.2382 56.2181 63.6805C56.1712 64.1228 55.9506 64.5281 55.6047 64.8075L38.6523 78.4982C38.3065 78.7775 38.0858 79.1828 38.039 79.6251C37.9921 80.0674 38.1228 80.5103 38.4024 80.8565L62.9699 111.277C63.2495 111.623 63.655 111.844 64.0972 111.892C64.5394 111.939 64.9821 111.808 65.328 111.529L82.2804 97.8384C82.6263 97.5591 83.069 97.4288 83.5112 97.476C83.9535 97.5233 84.359 97.7443 84.6385 98.0905L100.315 117.502C100.595 117.848 100.725 118.291 100.678 118.733C100.632 119.176 100.411 119.581 100.065 119.86L63.5522 149.348C63.2063 149.627 62.7636 149.758 62.3214 149.71C61.8791 149.663 61.4736 149.442 61.1941 149.096L1.05984 74.6349C0.920114 74.4637 0.815577 74.2665 0.752232 74.0548C0.688888 73.8431 0.667984 73.621 0.690723 73.4012C0.713461 73.1815 0.779394 72.9684 0.884732 72.7743C0.99007 72.5802 1.13274 72.4088 1.30454 72.2701Z" fill="#FFE7A5" stroke="#1E1E1E" stroke-width="4.68445" stroke-miterlimit="10"/>
<path d="M86.7056 3.30101L50.1927 32.7887C49.8469 33.068 49.6262 33.4734 49.5793 33.9156C49.5325 34.3579 49.6632 34.8008 49.9427 35.147L65.6219 54.5616C65.9015 54.9078 66.307 55.1288 66.7492 55.1761C67.1914 55.2233 67.6342 55.093 67.98 54.8137L84.9324 41.123C85.2783 40.8437 85.721 40.7133 86.1632 40.7606C86.6055 40.8079 87.011 41.0289 87.2905 41.375L111.858 71.7957C112.138 72.1418 112.268 72.5847 112.221 73.027C112.175 73.4693 111.954 73.8747 111.608 74.154L94.6557 87.8447C94.3098 88.124 94.0892 88.5294 94.0423 88.9716C93.9954 89.4139 94.1262 89.8568 94.4057 90.203L110.082 109.614C110.362 109.961 110.767 110.182 111.21 110.229C111.652 110.276 112.094 110.146 112.44 109.866L148.953 80.3788C149.299 80.0995 149.52 79.6941 149.567 79.2518C149.613 78.8095 149.483 78.3666 149.203 78.0204L89.069 3.55959C88.931 3.38695 88.7602 3.24326 88.5666 3.13676C88.373 3.03027 88.1602 2.96308 87.9406 2.93905C87.721 2.91502 87.4988 2.93463 87.2869 2.99674C87.075 3.05886 86.8774 3.16226 86.7056 3.30101Z" fill="#FFE7A5" stroke="#1E1E1E" stroke-width="4.68445" stroke-miterlimit="10"/>
<path d="M509.738 12.923C514.714 16.4333 519.117 20.3031 523.323 24.6963C525.05 26.4596 526.843 28.0619 528.721 29.6625C535.179 35.2326 541.118 41.3281 546.661 47.8038C549.097 50.5916 551.616 53.2991 554.134 56.0126C574.689 78.2394 574.689 78.2394 574.804 85.4661C573.381 96.0115 562.737 104.535 555.711 111.856C552.77 114.932 549.961 118.103 547.173 121.317C533.049 137.483 533.049 137.483 523.451 138.283C518.884 138.544 515.652 135.841 512.38 132.943C510.826 131.452 509.304 129.935 507.791 128.402C507.232 127.843 506.673 127.284 506.098 126.707C504.922 125.529 503.748 124.347 502.576 123.164C500.803 121.374 499.023 119.592 497.242 117.811C492.132 112.686 487.061 107.568 482.367 102.053C480.325 99.6561 478.167 97.3736 476.021 95.0692C471.939 90.6555 468.091 86.0989 464.324 81.4111C461.773 78.301 459.081 75.3347 456.35 72.3825C453.376 68.7817 452.727 66.0383 452.518 61.3485C453.656 55.9291 458.211 51.8317 461.909 47.9319C462.914 46.8574 463.92 45.7826 464.925 44.7077C465.429 44.1701 465.934 43.6325 466.454 43.0786C468.705 40.673 470.928 38.2422 473.152 35.8109C473.571 35.3553 473.989 34.8997 474.421 34.4303C476.607 32.0519 478.774 29.6597 480.918 27.2435C499.141 6.80904 499.141 6.80904 509.738 12.923Z" fill="#F17C22"/>
<path d="M500.51 32.5015C505.39 36.5841 509.955 40.8718 514.446 45.3764C515.128 46.0577 515.81 46.739 516.513 47.441C517.947 48.8744 519.38 50.309 520.812 51.7448C522.985 53.9232 525.164 56.0966 527.343 58.2696C528.744 59.671 530.144 61.0726 531.544 62.4746C532.187 63.1151 532.829 63.7555 533.491 64.4154C537.176 68.1185 540.694 71.9183 544.099 75.8809C545.226 77.1792 546.401 78.4359 547.588 79.679C548.4 80.5286 548.4 80.5286 549.228 81.3954C549.788 81.9691 550.349 82.5427 550.926 83.1338C552.039 84.9673 552.039 84.9673 551.922 87.2912C551.033 89.8488 550.006 91.4287 548.291 93.5164C547.701 94.2411 547.11 94.9657 546.501 95.7123C545.855 96.4949 545.209 97.2775 544.544 98.0838C543.868 98.9437 543.193 99.8036 542.498 100.689C537.229 107.336 531.664 112.719 524.869 117.758C521.293 116.31 519.275 114.116 516.73 111.259C516.318 110.799 515.906 110.339 515.482 109.865C512.839 106.887 510.317 103.829 507.829 100.719C504.188 96.1985 500.289 91.9866 496.294 87.778C490.851 82.0381 485.722 76.2021 480.835 69.9771C480.234 69.2742 479.632 68.5713 479.012 67.8471C478.474 67.1974 477.935 66.5476 477.38 65.8782C476.913 65.3299 476.445 64.7816 475.964 64.2167C475.214 62.4819 475.214 62.4819 475.77 60.2093C477.243 57.5126 478.908 55.5287 481.011 53.2887C482.147 52.0641 482.147 52.0641 483.305 50.8147C484.401 49.6336 484.401 49.6336 485.519 48.4286C486.618 47.1643 487.711 45.8959 488.799 44.6225C492.491 40.3735 496.49 36.4391 500.51 32.5015Z" fill="#1E1E1E"/>
<path d="M683.942 140.447C722.453 140.447 753.672 111.77 753.672 76.3946C753.672 41.0192 722.453 12.3418 683.942 12.3418C645.43 12.3418 614.211 41.0192 614.211 76.3946C614.211 111.77 645.43 140.447 683.942 140.447Z" stroke="#FFE7A5" stroke-width="6.55823" stroke-linejoin="round"/>
<path d="M683.942 140.447C700.565 140.447 714.041 111.77 714.041 76.3946C714.041 41.0192 700.565 12.3418 683.942 12.3418C667.318 12.3418 653.842 41.0192 653.842 76.3946C653.842 111.77 667.318 140.447 683.942 140.447Z" stroke="#FFE7A5" stroke-width="6.55823" stroke-linejoin="round"/>
<path d="M619.106 52.6621H748.726" stroke="#FFE7A5" stroke-width="6.55823" stroke-linejoin="round"/>
<path d="M1342.56 -12.4058C1344.44 -10.9419 1344.44 -10.9419 1345.37 -8.65823C1345.27 -1.05787 1341.76 5.32911 1338.58 12.0705C1329.97 30.4936 1322.23 48.6932 1329.45 69.1036C1332.61 76.6396 1337.43 82.4472 1342.74 88.5295C1352.67 99.9447 1359.91 110.282 1359.74 125.753C1358.9 134.638 1352.32 140.763 1346.31 146.866C1345.29 147.907 1345.29 147.907 1344.24 148.97C1341.9 151.207 1339.44 153.235 1336.94 155.298C1336.49 155.75 1336.04 156.202 1335.58 156.667C1326.96 165.26 1318.21 166.26 1306.51 166.309C1298.85 166.25 1291.19 165.996 1283.54 165.603C1288.62 155.041 1300.24 148.577 1309.43 141.918C1312.66 139.567 1315.86 137.178 1319.02 134.745C1319.54 134.359 1320.06 133.973 1320.59 133.576C1324.88 130.251 1328.75 126.365 1330.04 120.984C1329.8 112.655 1326.59 108.523 1321.31 102.363C1306.42 84.9505 1302.17 67.3516 1303.21 44.7445C1304.82 25.9092 1317.37 1.67227 1331.67 -10.5906C1335.73 -13.5888 1337.59 -13.5408 1342.56 -12.4058Z" fill="#34A853"/>
<path d="M1439.06 11.9533C1440 12.8902 1440 12.8902 1440.11 15.7486C1440.11 17.0124 1440.1 18.2762 1440.09 19.5399C1440.09 20.204 1440.09 20.8681 1440.09 21.5524C1440.08 23.6813 1440.07 25.8101 1440.06 27.939C1440.05 29.3791 1440.05 30.8192 1440.05 32.2593C1440.04 35.7964 1440.02 39.3335 1440 42.8706C1439.33 42.5542 1438.66 42.2378 1437.98 41.9118C1427.34 36.9566 1417.04 34.2842 1405.32 36.9565C1396.83 40.0818 1392.04 45.4511 1387.23 52.9239C1385.07 55.8507 1383.34 57.6002 1379.7 58.2671C1374.19 58.2757 1371.11 57.7679 1366.92 54.1133C1364.62 49.5028 1365.5 43.0973 1366.63 38.2264C1370.06 28.0367 1376.88 19.7058 1386.22 14.2882C1388.81 13.0433 1391.39 11.9925 1394.09 11.0164C1394.92 10.7169 1395.74 10.4174 1396.59 10.1088C1410.41 5.90304 1425.54 7.40931 1439.06 11.9533Z" fill="#4285F4"/>
<path d="M1423.55 72.4414C1424.34 73.195 1425.13 73.9486 1425.95 74.7251C1426.63 75.3591 1426.63 75.3591 1427.32 76.006C1431.2 80.332 1431.31 84.8541 1431.09 90.4948C1430.27 95.8103 1427.86 99.2088 1423.96 102.773C1418.83 105.679 1412.91 105.305 1407.21 104.706C1403.12 103.184 1400.51 101.079 1397.9 97.6203C1395.71 92.608 1394.88 87.3667 1396.64 82.0738C1398.9 77.1826 1401.59 74.1758 1406.54 71.8412C1412.1 69.951 1418.22 70.0185 1423.55 72.4414Z" fill="#34A853"/>
<path d="M898.386 68.9058C909.906 72.3522 916.391 88.0707 921.67 97.8286C927.108 108.064 931.973 118.553 936.298 129.306C936.578 129.986 936.858 130.667 937.147 131.368C938.783 135.572 939.448 139.012 939.05 143.593C937.703 145.936 937.703 145.936 935.302 147.341C929.913 148.191 926.05 146.164 921.717 143.125C917.526 139.863 913.815 136.283 910.138 132.461C905.921 128.29 901.421 124.245 895.426 123.509C889.337 123.608 885.153 127.593 880.681 131.352C870.743 139.695 859.843 145.659 846.556 144.812C841.539 144.15 836.695 142.496 831.904 140.909C825.966 139.002 819.376 137.303 813.349 139.725C807.516 142.921 803.065 148.214 798.516 152.962C788.308 163.309 788.308 163.309 781.301 163.62C777.948 163.565 777.034 163.312 774.098 161.394C771.832 157.885 771.719 155.119 772.283 151.089C773.21 148.379 774.504 145.963 775.914 143.476C776.292 142.789 776.67 142.102 777.059 141.394C780.898 134.566 785.263 128.21 790.084 122.045C790.768 121.155 791.451 120.265 792.155 119.348C797.794 112.518 805.736 106.909 814.784 105.862C822.881 105.583 830.092 107.119 837.907 109.136C845.358 111.012 852.499 112.387 859.458 108.387C866.42 103.318 870.813 95.7757 875.311 88.5908C888.525 67.4993 888.525 67.4993 898.386 68.9058Z" fill="#34A853"/>
<path d="M811.593 69.4835C814.334 71.1937 816.685 73.1079 818.152 76.0417C818.542 81.9933 818.024 85.0515 814.089 89.6998C811.227 92.1458 807.749 92.1806 804.098 91.9688C801.06 90.4773 799.226 89.2087 797.189 86.5231C796.29 83.3781 796.16 81.1845 796.603 77.9155C800.171 72.1702 804.577 68.5012 811.593 69.4835Z" fill="#FFE7A5"/>
<path d="M1118.87 -17.8062C1121.68 -17.2792 1121.68 -17.2792 1123.96 -15.9324C1126.18 -12.2877 1125.28 -9.18122 1124.49 -5.09958C1123.59 -1.97414 1122.46 1.03763 1121.28 4.06804C1120.96 4.91173 1120.64 5.75542 1120.31 6.62468C1119.63 8.39719 1118.95 10.1678 1118.27 11.9367C1117.23 14.6246 1116.21 17.3192 1115.19 20.0153C1114.53 21.7462 1113.86 23.4766 1113.2 25.2066C1112.9 26.0022 1112.6 26.7978 1112.29 27.6175C1107.36 40.2373 1107.36 40.2373 1102.91 42.8704C1099.82 44.1241 1096.84 44.0684 1093.57 43.6187C1091.23 42.3305 1091.23 42.3305 1089.82 40.808C1089.82 40.1897 1089.82 39.5713 1089.82 38.9343C1089.29 38.7132 1088.76 38.4922 1088.21 38.2645C1085.58 36.7849 1083.88 34.9741 1081.8 32.7859C1076.97 27.8386 1071.83 23.5351 1066.4 19.2596C1064.22 24.3872 1062.07 29.5101 1060.14 34.7402C1053.23 53.4347 1053.23 53.4347 1043.91 58.6089C1036.88 60.9526 1029.37 60.0808 1022.71 57.0316C1014.45 52.4335 1003.72 44.4236 1000.82 35.1867C1000.3 31.7273 1000.62 30.7776 1002.69 27.8672C1003.31 27.1909 1003.93 26.5146 1004.56 25.8178C1008.67 26.2825 1010.45 27.5165 1013.3 30.4693C1014.03 31.2187 1014.76 31.9681 1015.52 32.7402C1016.27 33.5282 1017.02 34.3162 1017.8 35.1281C1019.3 36.6805 1020.81 38.2311 1022.31 39.7796C1022.98 40.4704 1023.64 41.1611 1024.32 41.8728C1026.87 44.3586 1028.46 45.4309 1032.03 45.9024C1035.47 45.4944 1037.27 44.8787 1039.79 42.4878C1045.89 34.7088 1048.53 23.4812 1050.44 13.9639C1050.59 13.2122 1050.74 12.4605 1050.9 11.686C1051.19 10.21 1051.47 8.73065 1051.73 7.24811C1052.67 2.47843 1053.97 -0.14024 1057.97 -3.2258C1062.79 -3.91471 1065.27 -3.10985 1069.21 -0.415131C1070.69 0.988146 1072.14 2.43648 1073.54 3.91799C1077.62 8.09508 1081.93 11.7629 1086.48 15.4022C1089.69 18.0486 1092.6 20.9222 1095.44 23.944C1100.39 17.7876 1103.07 10.0697 1105.98 2.79811C1106.35 1.88312 1106.72 0.968128 1107.1 0.0254097C1107.83 -1.80349 1108.55 -3.63543 1109.26 -5.47059C1113.8 -16.8561 1113.8 -16.8561 1118.87 -17.8062Z" fill="#6E35C3"/>
<path d="M909.595 -103.749C912.347 -101.465 912.347 -101.465 914.279 -99.0642C914.743 -98.6005 914.743 -98.6005 915.216 -98.1273C917.113 -86.3878 912.768 -78.7481 906.784 -69.0837C906.389 -68.443 905.993 -67.8024 905.586 -67.1422C904.026 -64.628 902.453 -62.1218 900.869 -59.6224C898.139 -55.304 895.509 -50.9455 893.024 -46.4813C892.694 -45.9159 892.365 -45.3505 892.026 -44.7681C890.518 -41.9953 889.918 -40.1494 889.986 -36.9733C890.983 -34.05 891.483 -33.4352 894.195 -32.0766C894.945 -31.6998 895.695 -31.323 896.467 -30.9347C900.56 -29.1936 904.738 -27.6724 908.964 -26.2851C913.276 -24.7913 916.035 -23.0876 918.964 -19.4286C920.552 -15.0675 919.335 -10.9931 917.672 -6.80982C915.785 -2.7974 913.641 1.06745 911.469 4.93058C911.037 5.70382 910.606 6.47706 910.161 7.27372C907.359 12.2781 904.504 17.25 901.619 22.2068C900.299 24.4787 898.991 26.7569 897.686 29.0372C893.313 36.635 888.771 43.9177 883.362 50.8382C882.558 51.9559 882.558 51.9559 881.737 53.0962C879.004 56.6501 876.984 58.7498 872.471 59.563C869.053 59.6621 868.453 59.3312 865.561 57.1622C862.639 53.1449 862.361 50.1085 862.75 45.2168C863.847 42.7253 864.961 40.5243 866.322 38.1902C867.098 36.7944 867.87 35.3963 868.639 33.9961C869.051 33.2458 869.463 32.4955 869.887 31.7225C872.256 27.2722 874.408 22.7178 876.569 18.1641C876.988 17.2855 877.407 16.4069 877.839 15.5017C878.655 13.7815 879.466 12.0587 880.271 10.3333C881.11 8.5463 881.966 6.76743 882.837 4.99554C883.266 4.10214 883.695 3.20873 884.138 2.28826C884.528 1.49102 884.919 0.693779 885.321 -0.127617C886.321 -2.98882 886.438 -5.17419 886.173 -8.18587C882.562 -13.3804 877.438 -14.5163 871.651 -16.208C859.736 -19.7399 859.736 -19.7399 855.841 -24.8742C854.949 -27.9968 855.514 -30.3198 856.192 -33.4819C857.47 -35.6892 858.698 -37.5677 860.232 -39.5717C860.645 -40.1315 861.057 -40.6912 861.482 -41.268C864.173 -44.8839 866.998 -48.3809 869.858 -51.8638C877.052 -60.654 882.44 -69.7738 887.267 -80.0519C887.532 -80.6142 887.797 -81.1766 888.071 -81.7559C889.413 -84.6033 890.737 -87.4555 892.035 -90.3239C895.988 -98.8225 899.291 -105.384 909.595 -103.749Z" fill="#4285F4"/>
<path d="M602.537 -13.3543C608.345 -9.87581 612.146 -4.39029 614.088 2.00556C614.933 9.37582 612.886 15.3542 608.543 21.3509C603.118 27.7456 596.017 34.1267 587.324 35.0529C579.537 35.3168 573.529 33.9845 567.561 28.7472C562.749 23.4299 562.011 17.567 562.149 10.6498C563.347 1.80903 568.731 -5.72409 575.675 -11.1109C584.388 -16.4575 593.04 -17.5805 602.537 -13.3543Z" fill="#34A853"/>
<path d="M597.597 -7.35479C601.981 -5.39261 604.549 -3.06919 606.636 1.36633C607.303 6.51303 606.376 10.941 603.826 15.4197C599.357 21.0592 593.984 25.8073 586.72 27.0137C582.394 27.2483 578.903 26.6202 575.258 24.2213C571.665 20.8986 570.307 16.8849 569.629 12.1406C570.864 3.49766 576.147 -1.52672 582.511 -7.00712C587.372 -8.88519 592.608 -8.82146 597.597 -7.35479Z" fill="#1E1E1E"/>
<path d="M1117.01 80.7394C1121.07 84.6759 1123.42 88.457 1123.94 94.1633C1124 99.1761 1123.64 104.05 1123.04 109.022C1122.57 113.794 1122.95 116.311 1125.56 120.382C1130.24 124.656 1135.37 126.352 1141.27 128.517C1148.07 131.29 1154.05 135.202 1157.41 141.93C1158.79 154.577 1154.3 165.314 1148.86 176.419C1148.55 177.064 1148.23 177.709 1147.91 178.373C1146.33 181.461 1145.36 183.067 1142.42 185.027C1135.84 185.758 1135.84 185.758 1132.58 183.153C1129.78 177.553 1131.13 172.804 1132.58 166.992C1134.3 159.939 1135.35 153.156 1132.82 146.205C1128.17 141.872 1122.18 140.186 1116.24 138.193C1109.07 135.765 1103.91 132.8 1098.86 127.115C1097.04 123.248 1096.79 119.908 1097.45 115.697C1097.76 115.09 1098.07 114.482 1098.39 113.856C1100.14 110.287 1099.8 106.453 1099.32 102.581C1097.12 97.9807 1093.46 96.6874 1088.9 94.9867C1085.11 93.8071 1081.27 93.005 1077.37 92.2785C1074.23 91.0515 1073.53 89.6696 1072.15 86.6535C1071.69 83.7843 1071.69 83.7843 1072.15 81.0322C1075.29 77.1446 1079.21 76.4177 1083.93 75.7073C1095.09 74.6775 1107.65 73.5364 1117.01 80.7394Z" fill="#F9AB00"/>
<path d="M1236.53 25.3527C1237.17 25.3326 1237.8 25.3125 1238.45 25.2918C1242.85 25.2627 1245.78 26.0249 1249.47 28.3976C1260.5 39.4848 1270.8 62.2574 1271.67 77.8771C1271.43 80.8797 1271.14 81.6483 1269.21 84.084C1262.81 87.3479 1256.4 88.7334 1249.36 89.9395C1248.28 90.1244 1248.28 90.1244 1247.19 90.313C1245.14 90.6423 1243.1 90.9169 1241.04 91.1692C1239.94 91.3105 1238.84 91.4518 1237.71 91.5974C1232.4 90.8931 1228.92 87.877 1225.55 83.8173C1224.23 81.9567 1223.02 80.062 1221.83 78.1113C1221.4 77.4166 1220.97 76.722 1220.52 76.0063C1202.86 47.4112 1202.86 47.4112 1204.5 36.8296C1206.61 32.6815 1208.7 30.3231 1212.93 28.3976C1220.74 26.0548 1228.4 25.4953 1236.53 25.3527Z" fill="#F9AB00"/>
<path d="M1179.11 63.502C1183.94 64.7245 1186.49 68.4865 1188.98 72.5499C1189.35 73.1679 1189.72 73.7859 1190.1 74.4226C1190.69 75.3994 1190.69 75.3994 1191.3 76.3959C1192.14 77.7862 1192.99 79.1787 1193.83 80.5732C1195.15 82.7615 1196.49 84.9374 1197.83 87.1109C1200.02 90.6398 1202.17 94.1846 1204.31 97.741C1205.3 99.3799 1206.32 101.005 1207.34 102.628C1210.63 108.121 1212.45 112.832 1211.06 119.276C1209.38 122.025 1208.3 123.466 1205.44 124.898C1202.86 125.366 1202.86 125.366 1199.82 124.898C1195.52 121.065 1192.56 115.976 1189.75 111.02C1189.35 110.337 1188.96 109.653 1188.55 108.95C1187.3 106.776 1186.06 104.595 1184.83 102.412C1184.42 101.686 1184 100.961 1183.58 100.213C1181.18 95.9773 1178.82 91.7256 1176.49 87.4503C1175.83 86.2386 1175.17 85.0289 1174.5 83.8217C1168.69 73.258 1168.69 73.258 1169.84 67.7472C1172.21 63.8854 1174.69 63.5723 1179.11 63.502Z" fill="#4285F4"/>
<path d="M960.627 31.3349C968.123 34.5477 972.823 42.1015 977.119 48.6789C977.552 49.3353 977.985 49.9918 978.431 50.6681C981.804 55.8238 984.945 61.0523 987.875 66.471C988.199 67.0182 988.522 67.5654 988.855 68.1292C990.739 71.4546 991.78 74.9122 990.743 78.6611C988.007 82.876 984.627 84.5257 980.122 86.5488C979.456 86.8551 978.79 87.1614 978.105 87.477C961.686 94.9357 961.686 94.9357 954.89 94.4365C949.056 90.1939 947.669 82.8321 946.151 76.1962C945.965 75.4212 945.778 74.6461 945.586 73.8475C943.182 63.6039 940.259 48.488 945.21 38.7744C949.033 33.2401 953.861 29.6374 960.627 31.3349Z" fill="#F9AB00"/>
<path d="M778.061 0.0157483C780.54 2.09129 781.858 3.84677 782.303 7.09302C782.244 14.7477 782.244 14.7477 779.934 17.6177C776.514 20.2735 773.191 21.6712 768.832 21.3973C765.768 20.7741 763.851 19.2194 762.065 16.7245C760.394 13.4007 760.623 10.0905 761.112 6.46399C762.293 3.08044 764.167 0.898103 767.256 -0.899205C771.25 -2.59171 774.311 -1.96542 778.061 0.0157483Z" fill="#4285F4"/>
<path d="M172.424 10.3505C175.614 11.0383 177.611 12.8031 179.616 15.277C181.026 18.6432 180.819 21.2888 179.616 24.6956C177.933 27.221 176.584 28.3406 173.856 29.6792C170.62 30.3122 168.524 29.9443 165.58 28.4448C162.7 25.9664 161.553 24.3473 161.145 20.535C161.559 16.6708 162.931 15.0316 165.58 12.2594C168.171 10.5481 169.41 10.1431 172.424 10.3505Z" fill="#F9AB00"/>
<path d="M1025.22 8.42792C1027.24 8.94864 1027.98 9.44561 1029.17 11.1459C1029.52 12.8155 1029.44 14.2768 1028.66 15.8237C1027.41 17.0039 1026.51 16.8678 1024.82 16.8394C1024.04 16.8385 1024.04 16.8385 1023.23 16.8376C1021.85 16.6391 1021.85 16.6391 1020.99 16.0508C1020.09 14.6744 1020.19 13.1633 1020.47 11.6037C1021.71 9.64161 1022.8 8.3831 1025.22 8.42792Z" fill="#E34937"/>
<path d="M26.4973 6.55438C28.5108 7.0751 29.2517 7.57208 30.4455 9.27236C30.7934 10.9419 30.7149 12.4032 29.9306 13.9502C28.6882 15.1304 27.7813 14.9943 26.0968 14.9658C25.3108 14.9649 25.3108 14.9649 24.5089 14.964C23.1213 14.7655 23.1213 14.7655 22.2612 14.1772C21.3614 12.8009 21.4678 11.2897 21.748 9.73013C22.9849 7.76808 24.077 6.50956 26.4973 6.55438Z" fill="#E34937"/>
<path d="M1365.31 76.821C1367.33 77.3417 1368.07 77.8387 1369.26 79.539C1369.61 81.2085 1369.53 82.6698 1368.75 84.2168C1367.5 85.397 1366.6 85.2609 1364.91 85.2324C1364.13 85.2315 1364.13 85.2315 1363.33 85.2306C1361.94 85.0321 1361.94 85.0321 1361.08 84.4438C1360.18 83.0675 1360.28 81.5563 1360.56 79.9967C1361.8 78.0347 1362.89 76.7762 1365.31 76.821Z" fill="#E34937"/>
<path d="M1211.66 -0.00372373C1213.68 0.516995 1214.42 1.01397 1215.61 2.71426C1215.96 4.38382 1215.88 5.84514 1215.1 7.39205C1213.85 8.57225 1212.95 8.43617 1211.26 8.40771C1210.48 8.40683 1210.48 8.40683 1209.68 8.40593C1208.29 8.20744 1208.29 8.20744 1207.43 7.61914C1206.53 6.24278 1206.63 4.73163 1206.91 3.17202C1208.15 1.20997 1209.24 -0.0485445 1211.66 -0.00372373Z" fill="#E34937"/>
<g clip-path="url(#clip1_120_499)">
<path d="M1174.88 19.0463L1170.63 12.1531C1170.56 12.0301 1170.44 11.9427 1170.29 11.91C1170.15 11.8774 1170 11.9022 1169.88 11.9791L1166.16 14.271L1164.03 10.8209C1163.96 10.698 1163.83 10.6105 1163.69 10.5779C1163.55 10.5453 1163.4 10.5701 1163.28 10.647L1156.28 14.9549C1156.16 15.0317 1156.07 15.1543 1156.03 15.2956C1156 15.4369 1156.02 15.5854 1156.1 15.7083L1158.22 19.1584L1154.25 21.6083L1152.12 18.1582C1152.05 18.0352 1151.92 17.9478 1151.78 17.9152C1151.64 17.8825 1151.49 17.9074 1151.37 17.9842L1144.37 22.2914C1144.25 22.3683 1144.16 22.4908 1144.12 22.6321C1144.09 22.7734 1144.11 22.9219 1144.19 23.0449L1146.31 26.495L1142.59 28.7876C1142.47 28.8645 1142.38 28.987 1142.34 29.1283C1142.31 29.2696 1142.33 29.4181 1142.41 29.5411L1146.65 36.4343C1146.73 36.5573 1146.85 36.6447 1146.99 36.6774C1147.14 36.71 1147.28 36.6851 1147.41 36.6083L1151.13 34.3156L1153.55 38.2364L1149.82 40.5291C1149.7 40.6059 1149.61 40.7285 1149.58 40.8698C1149.54 41.0111 1149.56 41.1595 1149.64 41.2825L1153.89 48.1758C1153.96 48.2987 1154.08 48.3862 1154.23 48.4188C1154.37 48.4514 1154.52 48.4266 1154.64 48.3497L1158.36 46.0571L1160.49 49.506C1160.56 49.629 1160.69 49.7164 1160.83 49.749C1160.97 49.7816 1161.12 49.7568 1161.24 49.6799L1168.24 45.3728C1168.36 45.2959 1168.45 45.1734 1168.49 45.0321C1168.52 44.8908 1168.5 44.7423 1168.42 44.6193L1166.3 41.1704L1170.27 38.7205L1172.4 42.1695C1172.47 42.2924 1172.6 42.3799 1172.74 42.4125C1172.88 42.4451 1173.03 42.4203 1173.15 42.3434L1180.15 38.0355C1180.27 37.9587 1180.36 37.8361 1180.4 37.6948C1180.43 37.5535 1180.41 37.405 1180.33 37.2821L1178.21 33.8331L1181.93 31.5412C1182.05 31.4643 1182.14 31.3418 1182.18 31.2005C1182.21 31.0592 1182.19 30.9107 1182.11 30.7877L1177.87 23.8945C1177.79 23.7715 1177.67 23.6841 1177.53 23.6515C1177.39 23.6188 1177.24 23.6437 1177.11 23.7205L1173.39 26.0125L1170.97 22.0917L1174.7 19.7998C1174.82 19.7229 1174.91 19.6004 1174.94 19.459C1174.98 19.3177 1174.96 19.1693 1174.88 19.0463ZM1165.46 30.8999L1161.48 33.3497L1159.06 29.429L1163.04 26.9791L1165.46 30.8999Z" fill="#34A853" stroke="#0A2914" stroke-width="1.87378" stroke-linejoin="round"/>
</g>
<path d="M455.273 -4.04838C458.376 -2.1842 461.423 0.406001 462.52 3.96652C463.015 7.82864 462.538 11.6848 460.305 14.9395C456.429 19.6975 451.144 23.5915 446.226 27.1854C445.547 26.5065 444.868 25.8276 444.189 25.1486C443.71 24.7454 443.71 24.7454 443.222 24.334C442.56 23.5193 442.56 23.5193 442.591 22.5613C443.096 21.1126 443.838 20.619 445.055 19.7004C446.7 18.4185 448.2 17.1225 449.642 15.6189C450.31 14.9539 451.013 14.3802 451.75 13.7938C453.391 12.3989 454.687 10.8168 455.595 8.8547C455.628 6.87989 455.146 5.54083 453.965 3.96652C452.469 2.61955 450.979 2.03642 449.001 1.7261C444.828 2.27335 442.095 5.52131 439.315 8.4028C438.374 9.37826 437.408 10.2936 436.373 11.1715C430.467 16.2097 430.467 16.2097 427.768 23.2392C427.927 25.1131 428.284 25.768 429.524 27.1854C430.842 28.2011 432.211 29.1198 433.598 30.0368C434.005 30.4442 434.005 30.4442 434.158 31.3862C434.005 32.4809 434.005 32.4809 433.191 33.4229C431.628 34.3019 430.434 34.5055 428.71 34.1103C425.199 32.5476 422.738 30.281 421.271 26.7001C420.258 22.8468 420.516 18.8777 422.502 15.4025C424.276 12.966 426.376 10.838 428.487 8.69379C429.214 7.93925 429.882 7.14731 430.543 6.33423C432.239 4.35781 434.283 2.74231 436.274 1.0753C437.421 0.114368 438.517 -0.888913 439.606 -1.91458C444.216 -5.95872 449.642 -6.74245 455.273 -4.04838Z" fill="#FFE7A5"/>
<path d="M434.82 19.4456C438.068 20.4912 440.388 22.8375 442.127 25.7085C443.622 28.9789 443.562 32.8718 442.572 36.2853C441.192 39.3391 438.998 41.6823 436.677 44.0498C435.547 45.2085 434.446 46.3937 433.343 47.5781C433.118 47.8181 432.894 48.0581 432.662 48.3053C431.322 49.7477 430.06 51.2269 428.837 52.7718C426.368 55.8388 423.456 59.2817 419.344 59.8938C418.482 59.9513 417.633 59.9636 416.769 59.9513C416.465 59.9482 416.161 59.9451 415.847 59.9419C411.916 59.8252 408.775 58.3842 405.898 55.6996C403.541 53.0428 402.801 50.3663 402.867 46.8318C403.38 43.0751 405.558 40.203 408.342 37.7762C408.661 37.457 408.981 37.1377 409.31 36.8088C409.662 36.4559 410.015 36.1031 410.379 35.7395C410.666 35.4481 410.952 35.1566 411.248 34.8564C414.564 31.5019 414.564 31.5019 416.082 30.444C416.351 30.444 416.619 30.444 416.896 30.444C417.482 31.0995 417.482 31.0995 418.118 31.9715C418.329 32.2551 418.539 32.5386 418.755 32.8308C419.3 33.6421 419.741 34.4483 420.155 35.3321C419.835 35.6472 419.516 35.9623 419.186 36.2869C415.655 39.7493 415.655 39.7493 412.416 43.4791C412.205 43.7411 411.994 44.0032 411.778 44.2731C410.706 45.7598 410.229 46.8189 410.353 48.6728C410.643 50.2458 411.068 51.0973 412.416 52.0334C414.089 52.9632 415.844 53.3038 417.711 52.8481C421.21 50.8375 424.077 47.9074 426.898 45.0647C427.589 44.3703 428.287 43.6839 428.986 42.9978C434.228 37.8039 434.228 37.8039 436.169 30.9277C436.138 28.7768 435.989 27.5393 434.412 25.9631C433.486 25.3754 432.553 24.855 431.571 24.3656C430.746 23.9264 430.746 23.9264 429.932 23.1117C429.726 21.8088 429.82 21.2466 430.543 20.133C431.966 19.1722 433.181 19.156 434.82 19.4456Z" fill="#FFE7A5"/>
</g>
<defs>
<clipPath id="clip0_120_499">
<rect width="1440" height="82" fill="white"/>
</clipPath>
<clipPath id="clip1_120_499">
<rect width="34" height="33" fill="white" transform="translate(1139 25) rotate(-31.6337)"/>
</clipPath>
</defs>
</svg>
