<svg width="190" height="167" viewBox="0 0 190 167" fill="none" xmlns="http://www.w3.org/2000/svg">
<path d="M182.843 89.2075C183.44 91.1302 183.719 92.8516 183.122 94.8179C181.709 96.9653 180.641 98.5805 178.076 99.3476C174.337 99.511 171.649 98.5412 168.513 96.5892C168.096 96.3368 167.68 96.0843 167.251 95.8242C164.34 93.9724 162.053 91.8713 159.726 89.342C156.358 85.7123 152.62 83.1437 148.379 80.6029C147.808 80.2575 147.238 79.9122 146.649 79.5563C141.272 76.4386 135.695 74.2762 129.449 73.9446C128.821 73.9028 128.821 73.9028 128.18 73.8603C124.998 73.6927 121.979 73.9399 118.84 74.5137C117.399 74.7324 117.399 74.7324 116.094 74.5864C114.578 74.5313 114.044 75.0378 112.809 75.884C111.878 76.1861 110.939 76.4613 109.995 76.7172C104.59 78.3626 99.6837 81.1426 94.7414 83.8307C85.0964 89.065 75.7945 91.7025 64.8962 88.8549C62.6879 88.1633 60.8533 87.1416 58.8908 85.9054C58.2067 85.4828 57.5225 85.0602 56.8383 84.6378C55.7826 83.9779 54.7285 83.3156 53.6759 82.6508C48.2098 79.212 44.0861 76.9874 37.4591 78.42C33.3573 79.6822 29.5304 81.6344 25.6841 83.5169C13.4625 89.4805 13.4625 89.4805 9.04849 88.5042C6.48344 87.3811 5.10151 86.0986 3.88983 83.6308C3.06039 81.4402 2.95916 79.6886 3.63238 77.4369C5.75977 72.924 10.4211 70.7807 14.567 68.4189C15.0535 68.1355 15.54 67.8522 16.0413 67.5602C22.4253 63.857 28.5207 60.5543 35.7873 59.0288C36.393 58.8947 36.9987 58.7605 37.6228 58.6223C46.3071 57.0515 52.4293 60.0874 59.5938 64.4636C68.735 70.1147 68.735 70.1147 79.2515 70.205C82.2649 69.19 84.9606 67.5958 87.7109 66.0219C93.1545 63.009 98.4696 60.454 104.367 58.4886C104.908 58.2874 105.449 58.0861 106.006 57.8787C113.577 55.1995 121.671 54.9302 129.614 55.4059C130.182 55.433 130.751 55.4601 131.337 55.488C150.693 56.9824 172.895 72.7759 182.843 89.2075Z" fill="#2763E9"/>
</svg>
