<svg width="250" height="914" viewBox="0 0 250 914" fill="none" xmlns="http://www.w3.org/2000/svg">
<g clip-path="url(#clip0_8533_1670)">
<rect width="925" height="8" transform="translate(168.558 -2.58887) rotate(85)" fill="#FFE7A5"/>
<g clip-path="url(#clip1_8533_1670)">
<rect x="120.589" y="-4" width="8" height="56" fill="#FFE7A5"/>
<rect x="120.589" y="75" width="8" height="56" fill="#FFE7A5"/>
<rect x="120.589" y="154" width="8" height="56" fill="#FFE7A5"/>
<rect x="120.589" y="233" width="8" height="56" fill="#FFE7A5"/>
<rect x="120.589" y="312" width="8" height="56" fill="#FFE7A5"/>
<rect x="120.589" y="391" width="8" height="56" fill="#FFE7A5"/>
<rect x="120.589" y="470" width="8" height="56" fill="#FFE7A5"/>
<rect x="120.589" y="549" width="8" height="56" fill="#FFE7A5"/>
<rect x="120.589" y="628" width="8" height="56" fill="#FFE7A5"/>
<rect x="120.589" y="707" width="8" height="56" fill="#FFE7A5"/>
<rect x="120.589" y="786" width="8" height="56" fill="#FFE7A5"/>
<rect x="120.589" y="865" width="8" height="56" fill="#FFE7A5"/>
</g>
<rect width="925" height="8" transform="translate(88.5886 -1.8916) rotate(95)" fill="#FFE7A5"/>
</g>
<defs>
<clipPath id="clip0_8533_1670">
<rect width="925" height="249.177" fill="white" transform="translate(249.177 -4) rotate(90)"/>
</clipPath>
<clipPath id="clip1_8533_1670">
<rect width="1004" height="8.00013" fill="white" transform="translate(128.589 -4) rotate(90)"/>
</clipPath>
</defs>
</svg>
