<svg width="49" height="45" viewBox="0 0 49 45" fill="none" xmlns="http://www.w3.org/2000/svg">
<path d="M47.7 22.2C47.7 10.2 37.1 0.5 24.1 0.5C11 0.5 0.5 10.2 0.5 22.2C0.5 34.2 11 43.9 24.1 43.9C37.1 43.9 47.7 34.2 47.7 22.2Z" stroke="#100F10" stroke-miterlimit="10"/>
<path d="M34.2999 22.2C34.2999 10.2 29.6999 0.5 24.0999 0.5C18.4999 0.5 13.8999 10.2 13.8999 22.2C13.8999 34.2 18.4999 43.9 24.0999 43.9C29.6999 43.9 34.2999 34.2 34.2999 22.2Z" stroke="#100F10" stroke-miterlimit="10"/>
<path d="M2.1001 14.2002H46.0001" stroke="#100F10" stroke-miterlimit="10"/>
<path d="M2.1001 30.2002H46.0001" stroke="#100F10" stroke-miterlimit="10"/>
</svg>
